<svg width="95" height="57" viewBox="0 0 95 57" fill="none" xmlns="http://www.w3.org/2000/svg">
<g filter="url(#filter0_d_1_1851)">
<path fill-rule="evenodd" clip-rule="evenodd" d="M14 9C12.8954 9 12 9.89543 12 11V37C12 38.1046 12.8954 39 14 39H42.9967L47.5 42L52.0033 39H81C82.1046 39 83 38.1046 83 37V11C83 9.89543 82.1046 9 81 9H14Z" fill="white"/>
</g>
<circle cx="23.5" cy="23.5" r="3" stroke="#724BF2"/>
<path d="M36.4688 29.0909H37.2699L37.2741 28.1321C39.0767 28 40.108 26.9688 40.108 25.5881C40.108 24.0156 38.706 23.4062 37.598 23.1335L37.2869 23.0526L37.2955 20.3168C38.0923 20.4233 38.6378 20.8665 38.7188 21.5653H39.9886C39.9545 20.2656 38.8807 19.294 37.2997 19.1662L37.304 18.1818H36.5028L36.4986 19.1747C34.9688 19.3281 33.848 20.2827 33.848 21.6591C33.848 22.8736 34.7173 23.5852 36.1193 23.9645L36.4858 24.0625L36.4773 26.9645C35.6463 26.8622 35.0028 26.4105 34.9347 25.5881H33.6136C33.6946 27.0582 34.7557 28.0043 36.473 28.1321L36.4688 29.0909ZM37.2784 26.9645L37.2869 24.2841C38.152 24.5227 38.804 24.8381 38.804 25.5753C38.804 26.321 38.1818 26.8452 37.2784 26.9645ZM36.4901 22.8395C35.8551 22.652 35.1562 22.3153 35.1605 21.5824C35.1605 20.9432 35.6676 20.4446 36.4943 20.321L36.4901 22.8395ZM44.609 28.1193C46.4329 28.1364 47.6431 26.8239 47.6388 25.1491C47.6431 23.4787 46.4286 22.2812 44.9158 22.2812C43.9954 22.2812 43.1985 22.7244 42.7511 23.4616H42.6871C42.6914 21.4801 43.4414 20.304 44.7198 20.304C45.5593 20.304 46.0877 20.8153 46.2667 21.5398H47.5664C47.3661 20.1591 46.2795 19.1534 44.7198 19.1534C42.6914 19.1534 41.4258 20.8963 41.4258 23.9304C41.4215 27.1435 43.0579 28.1065 44.609 28.1193ZM44.6048 27.0114C43.5906 27.0114 42.8491 26.1591 42.8491 25.179C42.8533 24.2031 43.6289 23.3509 44.6346 23.3509C45.6317 23.3509 46.3647 24.1562 46.3604 25.1662C46.3647 26.1974 45.6019 27.0114 44.6048 27.0114ZM50.479 26.8068H49.2518L49.2092 27.2841C49.1112 28.4389 48.8384 29.6023 48.7234 30.1307H49.6268C49.8313 29.5724 50.283 28.294 50.4151 27.2713L50.479 26.8068ZM54.9716 28.1449C56.9872 28.1449 58.1676 26.5 58.1676 23.6406C58.1676 20.8026 56.9702 19.1534 54.9716 19.1534C52.9688 19.1534 51.7756 20.7983 51.7713 23.6406C51.7713 26.4957 52.9517 28.1406 54.9716 28.1449ZM54.9716 27.0071C53.7912 27.0071 53.0795 25.8224 53.0795 23.6406C53.0838 21.4673 53.7955 20.2699 54.9716 20.2699C56.1435 20.2699 56.8594 21.4673 56.8594 23.6406C56.8594 25.8224 56.1477 27.0071 54.9716 27.0071ZM62.7177 28.1449C64.7333 28.1449 65.9137 26.5 65.9137 23.6406C65.9137 20.8026 64.7163 19.1534 62.7177 19.1534C60.7148 19.1534 59.5217 20.7983 59.5174 23.6406C59.5174 26.4957 60.6978 28.1406 62.7177 28.1449ZM62.7177 27.0071C61.5373 27.0071 60.8256 25.8224 60.8256 23.6406C60.8299 21.4673 61.5415 20.2699 62.7177 20.2699C63.8896 20.2699 64.6055 21.4673 64.6055 23.6406C64.6055 25.8224 63.8938 27.0071 62.7177 27.0071ZM70.4638 28.1449C72.4794 28.1449 73.6598 26.5 73.6598 23.6406C73.6598 20.8026 72.4624 19.1534 70.4638 19.1534C68.4609 19.1534 67.2678 20.7983 67.2635 23.6406C67.2635 26.4957 68.4439 28.1406 70.4638 28.1449ZM70.4638 27.0071C69.2834 27.0071 68.5717 25.8224 68.5717 23.6406C68.576 21.4673 69.2876 20.2699 70.4638 20.2699C71.6357 20.2699 72.3516 21.4673 72.3516 23.6406C72.3516 25.8224 71.6399 27.0071 70.4638 27.0071Z" fill="#2C384F"/>
<defs>
<filter id="filter0_d_1_1851" x="0" y="0" width="95" height="57" filterUnits="userSpaceOnUse" color-interpolation-filters="sRGB">
<feFlood flood-opacity="0" result="BackgroundImageFix"/>
<feColorMatrix in="SourceAlpha" type="matrix" values="0 0 0 0 0 0 0 0 0 0 0 0 0 0 0 0 0 0 127 0" result="hardAlpha"/>
<feOffset dy="3"/>
<feGaussianBlur stdDeviation="6"/>
<feColorMatrix type="matrix" values="0 0 0 0 0 0 0 0 0 0 0 0 0 0 0 0 0 0 0.08 0"/>
<feBlend mode="normal" in2="BackgroundImageFix" result="effect1_dropShadow_1_1851"/>
<feBlend mode="normal" in="SourceGraphic" in2="effect1_dropShadow_1_1851" result="shape"/>
</filter>
</defs>
</svg>
